<?xml version="1.0" encoding="UTF-8"?>
<svg width="1390px" height="589px" viewBox="0 0 1390 589" version="1.1" xmlns="http://www.w3.org/2000/svg" xmlns:xlink="http://www.w3.org/1999/xlink">
    <title>BackgroundHead</title>
    <defs>
        <radialGradient cx="50%" cy="51.2484164%" fx="50%" fy="51.2484164%" r="98.7515836%" gradientTransform="translate(0.500000,0.512484),scale(0.339067,1.000000),rotate(90.000000),translate(-0.500000,-0.512484)" id="radialGradient-1">
            <stop stop-color="#EDEDED" stop-opacity="0.58" offset="0%"></stop>
            <stop stop-color="#F7B800" stop-opacity="0.58" offset="100%"></stop>
        </radialGradient>
    </defs>
    <g id="Page-1" stroke="none" stroke-width="1" fill="none" fill-rule="evenodd">
        <g id="Artboard" transform="translate(1.000000, 1.000000)">
            <g id="BackgroundHead">
                <path d="M694.118571,574.032103 C746.064219,556.399066 817.568412,520.891308 1046.54969,520.891308 C1110.15854,520.891308 1159.88622,527.190035 1219.0037,533.90467 C1258.41536,538.381094 1314.41412,546.471916 1387,558.177138 C1387,413.013315 1387,327.529622 1387,301.72606 C1387,282.126888 1387,273.631994 1387,276.241377 C1386.36276,260.967595 1386.39883,251.545961 1387.1082,247.976473 C1388.36171,241.668915 1366.79876,234.83523 1353.70693,229.608353 C1190.17636,164.319221 900.377327,127.08004 706,118.283012 C511.622673,109.485983 371.449686,134.092153 239.351282,168.460812 C107.510887,202.762344 68.464491,242.86633 34.9476485,268.060563 C19.1755078,279.916304 4.54747351e-13,302.856555 4.54747351e-13,315.515378 C4.54747351e-13,328.174201 4.54747351e-13,327.003062 4.54747351e-13,338.362194 C4.54747351e-13,398.71335 4.54747351e-13,485.058945 4.54747351e-13,585 C4.54747351e-13,588.325227 9.58130368,585.272683 29.9814891,585 C41.5201238,584.845766 66.3765564,584.845766 104.550787,585 C126.262395,583.952746 143.890616,583.952746 157.435449,585 C170.980282,586.047254 189.500488,586.047254 212.996064,585 C499.11397,589.443426 659.488139,585.787461 694.118571,574.032103 Z" id="Oval" fill="url(#radialGradient-1)"></path>
                <rect id="Rectangle" fill-opacity="0.575502622" fill="#F7B500" x="0" y="0" width="1387" height="585"></rect>
            </g>
        </g>
    </g>
</svg>