<?xml version="1.0" encoding="UTF-8"?>
<svg width="1418px" height="616px" viewBox="0 0 1418 616" version="1.1" xmlns="http://www.w3.org/2000/svg" xmlns:xlink="http://www.w3.org/1999/xlink">
    <title>BackgroundHead</title>
    <defs>
        <radialGradient cx="50%" cy="51.2484164%" fx="50%" fy="51.2484164%" r="98.7515836%" gradientTransform="translate(0.500000,0.512484),scale(0.355072,1.000000),rotate(90.000000),translate(-0.500000,-0.512484)" id="radialGradient-1">
            <stop stop-color="#EDEDED" stop-opacity="0.58" offset="0%"></stop>
            <stop stop-color="#F7B800" stop-opacity="0.58" offset="100%"></stop>
        </radialGradient>
    </defs>
    <g id="Page-1" stroke="none" stroke-width="1" fill="none" fill-rule="evenodd">
        <g id="Artboard" transform="translate(1.000000, 15.000000)">
            <g id="BackgroundHead" transform="translate(0.000000, -14.000000)">
                <path d="M708.317802,592.682112 C761.297861,574.697943 834.22594,538.483107 1067.767,538.483107 C1132.64251,538.483107 1183.36043,544.907263 1243.65514,551.755609 C1283.85161,556.321173 1340.9655,564.573111 1414.9968,576.511423 C1414.9968,428.456905 1414.9968,341.270948 1414.9968,314.953551 C1414.9968,294.964094 1414.9968,286.300038 1414.9968,288.961383 C1414.34688,273.38345 1414.38366,263.774199 1415.10715,260.133631 C1416.38563,253.700469 1394.39329,246.730702 1381.04076,241.399741 C1214.25375,174.810486 961.702852,147.101789 736.490492,121.172174 C511.278133,95.2425591 427.288457,99.5565422 277.678859,121.172174 C144.192576,140.458306 1.84817988,194.170655 0.377023288,232.433871 C0.342694943,233.326714 0.393290734,234.585895 0.377023288,235.300759 C0.342694943,236.8093 0.378190341,237.53962 0.377023288,238.530536 C0.373889724,241.191169 -0.108554168,242.159355 0.377023288,243.770969 C1.49015416,247.465409 0.377023288,248.953775 0.377023288,260.133631 C0.377023288,278.867521 0.377023288,340.733902 0.377023288,352.319232 C0.377023288,413.87218 0.377023288,501.937203 0.377023288,603.868417 C0.377023288,607.25986 10.1491226,604.14653 30.9555435,603.868417 C42.7239507,603.711112 68.0753576,603.711112 107.009764,603.868417 C129.153722,602.800308 147.132979,602.800308 160.947535,603.868417 C174.762092,604.936525 193.651095,604.936525 217.614547,603.868417 C509.430012,608.400327 672.997763,604.671558 708.317802,592.682112 Z" id="Oval" fill="url(#radialGradient-1)"></path>
                <rect id="Rectangle" fill-opacity="0.575502622" fill="#F7B500" x="0" y="0" width="1415" height="614"></rect>
            </g>
        </g>
    </g>
</svg>