<?xml version="1.0" encoding="UTF-8"?>
<svg width="500px" height="71px" viewBox="0 0 500 71" version="1.1" xmlns="http://www.w3.org/2000/svg" xmlns:xlink="http://www.w3.org/1999/xlink">
    <title>logotipoconslogan</title>
    <defs>
        <polyline id="path-1" points="0 71 500 70.1800956 500 4.12028597e-14 0 6.01879149e-14"></polyline>
    </defs>
    <g id="Page-1" stroke="none" stroke-width="1" fill="none" fill-rule="evenodd">
        <g id="logotipoconslogan">
            <path d="M3.85374119,9.15750916 L49.6147201,9.15750916 L49.6147201,10.5642091 L12.5611827,60.8643623 L29.1241906,60.8643623 C34.928768,60.8643623 39.5361152,58.7864196 42.9450813,54.6292454 C44.5013757,52.7032477 45.7546997,50.7700555 46.7059953,48.831172 C47.6566629,46.8922884 48.7255884,44.0217615 49.9110973,40.2196986 L51.2820513,40.2196986 L51.2820513,62.2710623 L0,62.2710623 L0,60.7881214 L37.2388777,10.4882902 L26.1598951,10.4882902 C19.662829,10.4882902 14.7103363,12.5164079 11.3013702,16.5714621 C9.91764857,18.1683349 8.81879233,19.7649931 8.0036503,21.3620807 C7.18850827,22.9587388 6.23721271,25.3541018 5.15049621,28.5478476 L3.85374119,28.5478476 L3.85374119,9.15750916 Z" id="Fill-1" fill="#592064"></path>
            <path d="M80.4191781,21.3458051 L70.0995215,44.5665095 L91.0026449,44.5665095 L80.4191781,21.3458051 Z M84.4115402,9.15750916 L85.8052662,9.15750916 L106.971987,54.7047369 C107.649809,56.1210675 108.408795,57.2891665 109.250647,58.2080864 C110.091435,59.1279538 111.039556,59.7924312 112.094158,60.2022554 C113.148654,60.6123954 114.391434,60.8173601 115.82271,60.8173601 L117.216117,60.8173601 L117.216117,62.2710623 L86.6712655,62.2710623 L86.6712655,60.8173601 L90.6636276,60.8173601 C92.6467777,60.8173601 94.0968824,60.5508112 95.0138354,60.0160291 C95.9301501,59.4820891 96.3885202,58.655598 96.3885202,57.5375033 C96.3885202,56.8420759 96.2059806,55.9969517 95.8423906,55.0029727 C95.4780561,54.0093096 94.6806687,52.2074727 93.4508667,49.5983043 C93.3753404,49.4494495 93.2624765,49.2011127 93.111743,48.8529779 C92.961116,48.5052643 92.7975111,48.1697622 92.6223114,47.8463663 L91.755993,45.9455737 L69.4593565,45.9455737 L67.76427,49.8217969 C67.2118643,51.1392769 66.9357147,52.4683369 66.9357147,53.8101348 C66.9357147,54.9534949 67.25601,56.0838012 67.8963878,57.2018959 C68.5365529,58.3200959 69.3709588,59.1652202 70.400882,59.7364265 C71.0787039,60.1341444 71.6872756,60.4015354 72.2275544,60.5377575 C72.7671951,60.6745059 73.5391588,60.7678823 74.5438712,60.8173601 L74.5438712,62.2710623 L53.1135531,62.2710623 L53.1135531,60.8173601 C54.6699265,60.6436612 55.9064301,60.3702696 56.8231703,59.9973959 C57.7396978,59.624417 58.7629194,59.0037328 59.8928352,58.1338696 C62.5539135,56.0963285 65.1527624,52.2573717 67.6890628,46.6166832 L84.4115402,9.15750916 Z" id="Fill-3" fill="#592064"></path>
            <path d="M119.047619,60.7882257 L120.508722,60.7882257 C123.730471,60.7882257 126.121521,59.9966064 127.682719,58.4118645 C129.243281,56.828089 130.024039,54.4008287 130.024039,51.1313723 L130.024039,47.1013299 L130.024039,43.6794986 L130.024039,38.7749381 L130.024039,19.0427639 C129.823956,17.369754 129.518382,16.0390776 129.106366,15.05052 C128.694243,14.0620697 128.076007,13.2387727 127.251868,12.5792331 C125.753521,11.2361004 123.505523,10.5641045 120.508722,10.5641045 L119.047619,10.5641045 L119.047619,9.15750916 L152.014652,9.15750916 L152.014652,10.5641045 L150.553549,10.5641045 C147.3318,10.5641045 144.946464,11.3500326 143.39828,12.9214592 C141.849462,14.4933153 141.075477,16.926589 141.075477,20.2214949 L141.075477,51.1313723 C141.075477,54.4008287 141.855811,56.828089 143.417114,58.4118645 C144.977571,59.9966064 147.356453,60.7882257 150.553549,60.7882257 L152.014652,60.7882257 L152.014652,62.2710623 L119.047619,62.2710623 L119.047619,60.7882257 Z" id="Fill-5" fill="#592064"></path>
            <path d="M178.920906,34.8590981 L193.438368,34.8590981 C196.86738,34.8590981 199.681654,34.4216251 201.882531,33.5471088 C204.083407,32.6726998 205.724767,31.3421335 206.806713,29.5550877 C207.888761,27.7681492 208.430352,25.4679264 208.430352,22.6545265 C208.430352,14.5943507 203.505655,10.5642091 193.657188,10.5642091 L178.920906,10.5642091 L178.920906,34.8590981 Z M190.374263,36.265798 L178.920906,36.265798 L178.920906,51.1313948 C178.920906,54.3760395 179.686778,56.7962076 181.218624,58.3932953 C182.750883,59.989846 185.072811,60.7882287 188.185749,60.7882287 L189.681434,60.7882287 L189.681434,62.2710623 L157.509158,62.2710623 L157.509158,60.7882287 L158.89533,60.7882287 C162.032169,60.7882287 164.360484,59.9965037 165.880483,58.4118723 C167.399967,56.8281 168.160378,54.4007372 168.160378,51.1313948 L168.160378,20.2215799 C168.160378,16.9266807 167.406354,14.4934119 165.898718,12.921559 C164.39067,11.3501356 162.056379,10.5642091 158.89533,10.5642091 L157.509158,10.5642091 L157.509158,9.15750916 L197.013054,9.15750916 C202.362514,9.15750916 206.593971,9.56341189 209.706908,10.3742509 C212.819331,11.1857342 215.287861,12.5545284 217.111571,14.4803114 C218.156943,15.5704501 218.989986,16.8631107 219.610183,18.3582931 C220.230381,19.8540125 220.540479,21.336846 220.540479,22.8069011 C220.540479,26.811808 218.546061,30.0302516 214.558047,32.4637351 C213.074621,33.3001309 211.056404,34.0479369 208.502983,34.7068308 C205.949975,35.3660469 203.408402,35.8093185 200.879603,36.0372898 C198.958228,36.1896644 196.028362,36.265798 192.088769,36.265798 L192.088769,36.4176357 C194.033943,37.7357457 195.796869,38.8258845 197.377961,39.687515 C198.958228,40.5491456 200.551167,41.2784819 202.156056,41.8734838 C203.761461,42.4694521 205.585068,43.0082933 207.627495,43.4891484 L208.831317,45.3904484 C209.633762,46.6071901 210.229337,47.5191827 210.618969,48.1276072 C211.007571,48.7359244 211.457884,49.4333684 211.968465,50.2188653 C213.330015,52.3733712 214.624703,54.2427788 215.85325,55.8264437 C217.08087,57.4111825 218.09616,58.5204352 218.898605,59.1535575 C220.479284,60.2435889 222.740944,60.7882287 225.683482,60.7882287 L227.106227,60.7882287 L227.106227,62.2710623 L207.992402,62.2710623 L190.374263,36.265798 Z" id="Fill-7" fill="#592064"></path>
            <path d="M252.580307,21.3458051 L242.261,44.5665095 L263.163846,44.5665095 L252.580307,21.3458051 Z M256.572616,9.15750916 L257.966323,9.15750916 L279.132976,54.7047369 C279.810576,56.1210675 280.569871,57.2891665 281.411606,58.2080864 C282.252383,59.1279538 283.200172,59.7924312 284.255079,60.2022554 C285.309561,60.6123954 286.552537,60.8173601 287.983795,60.8173601 L289.377289,60.8173601 L289.377289,62.2710623 L258.832524,62.2710623 L258.832524,60.8173601 L262.824833,60.8173601 C264.80817,60.8173601 266.258255,60.5508112 267.174983,60.0160291 C268.091286,59.4820891 268.54965,58.655598 268.54965,57.5375033 C268.54965,56.8420759 268.367113,55.9969517 268.003527,55.0029727 C267.638985,54.0093096 266.84214,52.2074727 265.611822,49.5983043 C265.536829,49.4494495 265.423648,49.2011127 265.273129,48.8529779 C265.122291,48.5052643 264.958688,48.1697622 264.783278,47.8463663 L263.916971,45.9455737 L241.620631,45.9455737 L239.925886,49.8217969 C239.373168,51.1392769 239.097342,52.4683369 239.097342,53.8101348 C239.097342,54.9534949 239.417526,56.0838012 240.057364,57.2018959 C240.697733,58.3200959 241.532447,59.1652202 242.561931,59.7364265 C243.239957,60.1341444 243.848308,60.4015354 244.388686,60.5377575 C244.928213,60.6745059 245.700592,60.7678823 246.705078,60.8173601 L246.705078,62.2710623 L225.274725,62.2710623 L225.274725,60.8173601 C226.831397,60.6436612 228.067884,60.3702696 228.984612,59.9973959 C229.900809,59.624417 230.924123,59.0037328 232.054024,58.1338696 C234.715492,56.0963285 237.313881,52.2573717 239.850361,46.6166832 L256.572616,9.15750916 Z" id="Fill-9" fill="#592064"></path>
            <path d="M349.971733,13.0035207 L351.269853,13.0035207 L351.269853,30.5492668 L349.971733,30.5492668 C348.414514,26.3248176 346.646579,23.0280651 344.669185,20.6593195 C343.235546,18.9987354 341.436926,17.5398919 339.274371,16.2818579 C337.110769,15.0244447 334.688276,14.0353982 332.006578,13.3149255 C329.323938,12.5948665 326.61124,12.2344232 323.867333,12.2344232 C321.814849,12.2344232 319.985961,12.5153083 318.379205,13.0768715 C316.77182,13.638952 315.412853,14.4688819 314.300523,15.567696 C313.508874,16.3495186 312.878404,17.228694 312.409531,18.2051187 C311.939192,19.1819573 311.704703,20.1221721 311.704703,21.0257633 C311.704703,22.7350756 312.372352,24.2123344 313.707127,25.4579536 C314.324611,26.0684518 315.209049,26.6545343 316.358139,27.2158905 C317.507752,27.7781779 318.991033,28.3276367 320.808191,28.8642668 C322.624929,29.4017246 325.165033,30.0612613 328.427979,30.8423597 C329.317968,31.1115541 329.923408,31.2697395 330.245136,31.3183642 L332.061875,31.7582622 L334.954288,32.4906325 C339.848706,33.7363551 343.420812,34.8351692 345.670711,35.787385 C347.919668,36.7399113 349.83569,37.9979452 351.41794,39.5600386 C352.65385,40.7085119 353.611599,42.0508631 354.291816,43.5895752 C354.971509,45.1278735 355.311355,46.7890784 355.311355,48.5713277 C355.311355,50.3296785 354.927837,52.0940297 354.161847,53.8643815 C353.395333,55.6352505 352.307929,57.1917572 350.898901,58.5347292 C349.069176,60.3907431 346.813727,61.7827536 344.13161,62.7105536 C341.448969,63.6383537 338.389932,64.1025641 334.954288,64.1025641 C332.556302,64.1025641 330.300852,63.8645101 328.186997,63.3879884 C326.07356,62.9118805 323.496382,62.0391194 320.455881,60.7691879 C318.477545,59.9876757 316.970072,59.4565288 315.931996,59.1758506 C314.893814,58.8951725 313.917004,58.7543678 313.002404,58.7543678 C311.246932,58.7543678 309.757995,59.2120605 308.534129,60.127963 C307.310786,61.0438655 306.500601,62.3441099 306.105562,64.0291098 L304.807861,64.0291098 L304.807861,40.3663804 L306.105562,40.3663804 C306.6246,44.5665172 308.342475,48.3758979 311.259918,51.7946259 C313.014866,53.797445 315.258272,55.6590456 317.990031,57.3807727 C320.720951,59.1024998 323.582783,60.4393678 326.574061,61.3914802 C329.56492,62.3441099 332.407691,62.8201143 335.102375,62.8201143 C337.499838,62.8201143 339.694021,62.4298755 341.684401,61.6483633 C343.673838,60.8668511 345.225402,59.7799345 346.337837,58.3879241 C347.450271,56.9960171 348.006488,55.4209916 348.006488,53.6626409 C348.006488,51.8074546 347.252438,50.1343521 345.744441,48.6446785 C345.052285,47.9851418 344.156221,47.3751608 343.056354,46.8128734 C341.955964,46.2515172 340.534892,45.6773323 338.791988,45.0912498 C337.049083,44.5054777 334.65759,43.8093173 331.616985,43.0034928 L327.908836,42.0146532 C322.124428,40.4759411 318.119581,39.2798777 315.894817,38.4249112 C313.397966,37.5214235 311.438691,36.6179358 310.017515,35.7139308 C308.595919,34.8108569 307.366502,33.6629008 306.328007,32.2709938 C304.794875,30.3176271 304.029304,28.1685202 304.029304,25.8239835 C304.029304,22.9914414 304.881696,20.4459917 306.587526,18.1868069 C308.293252,15.9282427 310.67867,14.1636846 313.744306,12.8936496 C316.808999,11.6241319 320.208406,10.989011 323.941167,10.989011 C329.577487,10.989011 335.423685,12.5398275 341.480598,15.6408399 C343.606078,16.6911328 345.052285,17.2160723 345.818798,17.2160723 C347.746864,17.2160723 349.131385,15.8119574 349.971733,13.0035207" id="Fill-11" fill="#592064"></path>
            <path d="M284.571646,31.1355311 L283.882784,29.9209475 C287.832457,27.6490111 289.807974,25.4028557 289.807974,23.1828133 C289.807974,22.6604438 289.635467,22.1969391 289.29123,21.791746 C288.946604,21.3869954 288.383741,21.0020509 287.603031,20.6360271 C286.362981,19.8791945 285.478746,19.0826392 284.950326,18.2464718 C284.422004,17.4109684 284.158426,16.3269495 284.158426,14.9948576 C284.158426,13.3757447 284.657851,11.9978446 285.656897,10.8618211 C286.655845,9.72557624 287.878673,9.15750916 289.325771,9.15750916 C290.381637,9.15750916 291.334856,9.48447414 292.185037,10.1370763 C293.034244,10.7902318 293.694599,11.678293 294.165614,12.8008175 C294.636239,13.9241165 294.871795,15.2433732 294.871795,16.757813 C294.871795,20.7537566 293.49407,24.2011073 290.737841,27.1000861 C289.911012,28.0149242 289.095858,28.739337 288.292282,29.2745416 C287.487831,29.8101888 286.247781,30.4301498 284.571646,31.1355311" id="Fill-13" fill="#592064"></path>
            <path d="M384.427655,42.295867 C384.463054,42.8552319 384.585052,43.3679571 384.792948,43.8336261 C385.000445,44.2998156 385.27614,44.7040617 385.619634,45.046989 C385.963728,45.3898122 386.369721,45.6566375 386.839213,45.8467362 C387.307805,46.036939 387.821996,46.1319884 388.380587,46.1319884 C388.881478,46.1319884 389.36157,46.0743133 389.819962,45.9584426 C390.277954,45.8430925 390.682647,45.6602812 391.033741,45.4106335 C391.384435,45.1609858 391.66373,44.8364854 391.871626,44.4377569 C392.079023,44.0390285 392.182821,43.5558696 392.182821,42.9895295 C392.182821,42.5270878 392.070223,42.133877 391.844527,41.8094807 C391.618931,41.4855009 391.321936,41.2057663 390.953042,40.9709018 C390.584249,40.7359331 390.165356,40.5329251 389.696264,40.3612533 C389.227272,40.1899979 388.75248,40.0297777 388.272888,39.8808011 C387.872095,39.7612867 387.469202,39.6306329 387.064409,39.4889437 C386.660116,39.347671 386.269523,39.1871386 385.893629,39.0080752 C385.517736,38.8294282 385.167042,38.6245463 384.841247,38.3933255 C384.514953,38.1621046 384.232158,37.8897617 383.992262,37.5769212 C383.752466,37.2634561 383.562769,36.9077237 383.423172,36.5088912 C383.283474,36.1101628 383.213875,35.649595 383.213875,35.1276043 C383.213875,34.4792282 383.335373,33.9068499 383.579169,33.4111982 C383.822565,32.9155465 384.164359,32.4997445 384.604951,32.1642088 C385.045144,31.8286731 385.571335,31.5735078 386.184024,31.3980881 C386.796214,31.2231889 387.467402,31.1355311 388.19789,31.1355311 C388.849578,31.1355311 389.425869,31.2024717 389.92726,31.3367693 C390.428151,31.4709627 390.865244,31.653774 391.237637,31.8845784 C391.610031,32.1157992 391.925226,32.3861642 392.182821,32.695465 C392.440817,33.0050782 392.651813,33.3313484 392.81671,33.6738592 C392.981207,34.0172029 393.103105,34.3711655 393.182004,34.7362675 C393.260503,35.1017859 393.311002,35.4520006 393.332301,35.7875363 L391.699529,35.7875363 C391.65663,35.2656497 391.536432,34.8073723 391.339636,34.4122876 C391.142839,34.0172029 390.888743,33.685415 390.577149,33.4168199 C390.265454,33.1486412 389.90596,32.9469867 389.497667,32.8131055 C389.089374,32.678808 388.655882,32.611451 388.19789,32.611451 C387.774997,32.611451 387.361904,32.6562168 386.957111,32.7457485 C386.552418,32.8352802 386.190624,32.9788433 385.87243,33.1763336 C385.553635,33.3738239 385.29564,33.6332576 385.098843,33.9534896 C384.901946,34.2742422 384.803548,34.6656832 384.803548,35.1276043 C384.803548,35.6048292 384.914346,36.0095958 385.136442,36.3409672 C385.358538,36.6727551 385.655633,36.9580072 386.027927,37.1966197 C386.400321,37.4352321 386.824613,37.6401139 387.301105,37.8117858 C387.777197,37.9834576 388.269288,38.1509652 388.77778,38.3148291 C389.178973,38.4491266 389.581466,38.5852981 389.986259,38.7232394 C390.390952,38.8612848 390.779245,39.019631 391.151639,39.1981739 C391.524032,39.3772373 391.869827,39.5803494 392.188521,39.8078224 C392.506816,40.0353995 392.782611,40.2998304 393.015307,40.6016355 C393.248003,40.9039612 393.4325,41.2505322 393.568497,41.641869 C393.704595,42.03331 393.772894,42.4823219 393.772894,42.9895295 C393.772894,43.7496121 393.638596,44.4188095 393.370001,44.9967055 C393.101305,45.5744973 392.727212,46.0572398 392.24752,46.4449329 C391.767428,46.832522 391.198238,47.1251657 390.539449,47.322656 C389.880661,47.5202504 389.160773,47.6190476 388.380587,47.6190476 C387.678399,47.6190476 386.99481,47.494432 386.328922,47.2446801 C385.662733,46.994616 385.070043,46.6405493 384.550852,46.1822719 C384.031761,45.723578 383.612869,45.1665034 383.294174,44.5102152 C382.975379,43.8544474 382.805582,43.1164355 382.783883,42.295867 L384.427655,42.295867 Z" id="Fill-15" fill="#592064"></path>
            <polygon id="Fill-17" fill="#592064" points="408.135367 31.1355311 408.135367 38.307854 416.040942 38.307854 416.040942 31.1355311 417.582418 31.1355311 417.582418 47.6190476 416.040942 47.6190476 416.040942 39.8678964 408.135367 39.8678964 408.135367 47.6190476 406.593407 47.6190476 406.593407 31.1355311"></polygon>
            <path d="M445.141041,39.36053 C445.141041,38.3028012 444.996571,37.355894 444.70796,36.5191801 C444.418912,35.6828851 444.022576,34.9742759 443.518951,34.3929336 C443.015217,33.8114865 442.424147,33.3690379 441.744542,33.0653782 C441.065373,32.7611947 440.335067,32.6093125 439.554388,32.6093125 C438.765532,32.6093125 438.031846,32.7611947 437.352677,33.0653782 C436.673072,33.3690379 436.083965,33.8114865 435.584156,34.3929336 C435.084347,34.9742759 434.691827,35.6828851 434.40714,36.5191801 C434.121909,37.355894 433.979402,38.3028012 433.979402,39.36053 C433.979402,40.4178398 434.121909,41.3670513 434.40714,42.2070124 C434.691827,43.0470783 435.084347,43.7579919 435.584156,44.3393342 C436.083965,44.9206765 436.673072,45.3650106 437.352677,45.6724412 C438.031846,45.9802907 438.765532,46.1340584 439.554388,46.1340584 C440.335067,46.1340584 441.065373,45.9802907 441.744542,45.6724412 C442.424147,45.3650106 443.015217,44.9206765 443.518951,44.3393342 C444.022576,43.7579919 444.418912,43.0470783 444.70796,42.2070124 C444.996571,41.3670513 445.141041,40.4178398 445.141041,39.36053 M446.886447,39.36053 C446.886447,40.5683603 446.724096,41.678148 446.400158,42.6908359 C446.076329,43.7036285 445.601707,44.575642 444.977163,45.3070858 C444.352729,46.038425 443.585134,46.606255 442.675905,47.0116234 C441.766239,47.4165729 440.725625,47.6190476 439.554388,47.6190476 C438.383261,47.6190476 437.342646,47.4165729 436.433417,47.0116234 C435.523642,46.606255 434.758555,46.038425 434.137501,45.3070858 C433.516774,44.575642 433.04455,43.7036285 432.720721,42.6908359 C432.396347,41.678148 432.234432,40.5683603 432.234432,39.36053 C432.234432,38.1602414 432.396347,37.0554814 432.720721,36.0468787 C433.04455,35.037857 433.516774,34.1695096 434.137501,33.4419413 C434.758555,32.7146873 435.523642,32.148219 436.433417,31.7428506 C437.342646,31.3379011 438.383261,31.1355311 439.554388,31.1355311 C440.725625,31.1355311 441.766239,31.3379011 442.675905,31.7428506 C443.585134,32.148219 444.352729,32.7146873 444.977163,33.4419413 C445.601707,34.1695096 446.076329,35.037857 446.400158,36.0468787 C446.724096,37.0554814 446.886447,38.1602414 446.886447,39.36053" id="Fill-19" fill="#592064"></path>
            <polygon id="Fill-21" fill="#592064" points="468.465973 31.1355311 468.465973 32.730664 459.561141 32.730664 459.561141 38.307854 467.94196 38.307854 467.94196 39.9029869 459.561141 39.9029869 459.561141 46.0239147 468.864469 46.0239147 468.864469 47.6190476 457.875458 47.6190476 457.875458 31.1355311"></polygon>
            <path d="M481.497237,42.295867 C481.532736,42.8552319 481.654632,43.3679571 481.862527,43.8336261 C482.070022,44.2998156 482.345714,44.7040617 482.689305,45.046989 C483.033296,45.3898122 483.439286,45.6566375 483.908773,45.8467362 C484.377361,46.036939 484.891547,46.1319884 485.450133,46.1319884 C485.951119,46.1319884 486.431207,46.0743133 486.889495,45.9584426 C487.347483,45.8430925 487.752172,45.6602812 488.103363,45.4106335 C488.453954,45.1609858 488.733246,44.8364854 488.941141,44.4377569 C489.148635,44.0390285 489.252333,43.5558696 489.252333,42.9895295 C489.252333,42.5270878 489.139736,42.133877 488.914042,41.8094807 C488.688447,41.4855009 488.391455,41.2057663 488.022565,40.9709018 C487.653775,40.7359331 487.234886,40.5329251 486.765898,40.3612533 C486.29691,40.1899979 485.822123,40.0297777 485.342435,39.8808011 C484.941646,39.7612867 484.538757,39.6306329 484.133967,39.4889437 C483.729678,39.347671 483.339188,39.1871386 482.963298,39.0080752 C482.587308,38.8294282 482.236717,38.6245463 481.910826,38.3933255 C481.584634,38.1621046 481.301742,37.8897617 481.061948,37.5769212 C480.822154,37.2634561 480.632359,36.9077237 480.492763,36.5088912 C480.353167,36.1101628 480.283469,35.649595 480.283469,35.1276043 C480.283469,34.4792282 480.404965,33.9068499 480.648759,33.4111982 C480.892153,32.9155465 481.233944,32.4997445 481.674532,32.1642088 C482.11472,31.8286731 482.641007,31.5735078 483.25359,31.3980881 C483.865774,31.2231889 484.536957,31.1355311 485.267537,31.1355311 C485.91912,31.1355311 486.495405,31.2024717 486.996792,31.3367693 C487.497779,31.4709627 487.934867,31.653774 488.307258,31.8845784 C488.679548,32.1157992 488.994739,32.3861642 489.252333,32.695465 C489.510326,33.0050782 489.72132,33.3313484 489.886216,33.6738592 C490.050712,34.0172029 490.172608,34.3711655 490.251506,34.7362675 C490.330004,35.1017859 490.380503,35.4520006 490.401802,35.7875363 L488.769145,35.7875363 C488.726147,35.2656497 488.60595,34.8073723 488.409155,34.4122876 C488.21236,34.0172029 487.958367,33.685415 487.646675,33.4168199 C487.335083,33.1486412 486.975593,32.9469867 486.567303,32.8131055 C486.159014,32.678808 485.725425,32.611451 485.267537,32.611451 C484.844649,32.611451 484.431459,32.6562168 484.02667,32.7457485 C483.621981,32.8352802 483.26029,32.9788433 482.941999,33.1763336 C482.623207,33.3738239 482.365214,33.6332576 482.168419,33.9534896 C481.971624,34.2742422 481.873127,34.6656832 481.873127,35.1276043 C481.873127,35.6048292 481.984024,36.0095958 482.206118,36.3409672 C482.428212,36.6727551 482.725204,36.9580072 483.097595,37.1966197 C483.469985,37.4352321 483.894174,37.6401139 484.370661,37.8117858 C484.846849,37.9834576 485.338836,38.1509652 485.847322,38.3148291 C486.248512,38.4491266 486.651101,38.5852981 487.05579,38.7232394 C487.46048,38.8612848 487.84887,39.019631 488.22126,39.1981739 C488.59355,39.3772373 488.939341,39.5803494 489.258033,39.8078224 C489.576324,40.0353995 489.852117,40.2998304 490.084811,40.6016355 C490.317605,40.9039612 490.502,41.2505322 490.638096,41.641869 C490.774193,42.03331 490.842491,42.4823219 490.842491,42.9895295 C490.842491,43.7496121 490.708094,44.4188095 490.439501,44.9967055 C490.170809,45.5744973 489.796718,46.0572398 489.317031,46.4449329 C488.836944,46.832522 488.267759,47.1251657 487.609076,47.322656 C486.950293,47.5202504 486.230412,47.6190476 485.450133,47.6190476 C484.747951,47.6190476 484.064369,47.494432 483.398587,47.2446801 C482.732304,46.994616 482.13962,46.6405493 481.620433,46.1822719 C481.101447,45.723578 480.682458,45.1665034 480.363766,44.5102152 C480.045075,43.8544474 479.875179,43.1164355 479.85348,42.295867 L481.497237,42.295867 Z" id="Fill-23" fill="#592064"></path>
            <mask id="mask-2" fill="white">
                <use xlink:href="#path-1"></use>
            </mask>
            <g id="Clip-48"></g>
        </g>
    </g>
</svg>