<?xml version="1.0" encoding="UTF-8"?>
<svg width="200px" height="239px" viewBox="0 0 200 239" version="1.1" xmlns="http://www.w3.org/2000/svg" xmlns:xlink="http://www.w3.org/1999/xlink">
    <title>Shape</title>
    <g id="Page-1" stroke="none" stroke-width="1" fill="none" fill-rule="evenodd">
        <g id="Desktop" transform="translate(-493.000000, -40.000000)" fill="#313132" fill-rule="nonzero">
            <g id="shopping-bag-solid" transform="translate(493.000000, 40.000000)">
                <path d="M157.142857,74.4047619 L157.142857,59.5238095 C157.142857,26.7020089 131.508482,0 100,0 C68.4910714,0 42.8571429,26.7020089 42.8571429,59.5238095 L42.8571429,74.4047619 L0,74.4047619 L0,200.892857 C0,221.439267 15.9897321,238.095238 35.7142857,238.095238 L164.285714,238.095238 C184.010268,238.095238 200,221.439267 200,200.892857 L200,74.4047619 L157.142857,74.4047619 Z M71.4285714,59.5238095 C71.4285714,43.1129092 84.2455357,29.7619048 100,29.7619048 C115.754464,29.7619048 128.571429,43.1129092 128.571429,59.5238095 L128.571429,74.4047619 L71.4285714,74.4047619 L71.4285714,59.5238095 Z M142.857143,115.327381 C136.939732,115.327381 132.142857,110.330636 132.142857,104.166667 C132.142857,98.0026972 136.939732,93.0059524 142.857143,93.0059524 C148.774554,93.0059524 153.571429,98.0026972 153.571429,104.166667 C153.571429,110.330636 148.774554,115.327381 142.857143,115.327381 Z M57.1428571,115.327381 C51.2254464,115.327381 46.4285714,110.330636 46.4285714,104.166667 C46.4285714,98.0026972 51.2254464,93.0059524 57.1428571,93.0059524 C63.0602679,93.0059524 67.8571429,98.0026972 67.8571429,104.166667 C67.8571429,110.330636 63.0602679,115.327381 57.1428571,115.327381 Z" id="Shape"></path>
            </g>
        </g>
    </g>
</svg>