<?xml version="1.0" encoding="UTF-8"?>
<svg width="250px" height="250px" viewBox="0 0 250 250" version="1.1" xmlns="http://www.w3.org/2000/svg" xmlns:xlink="http://www.w3.org/1999/xlink">
    <title>account_circle-24px</title>
    <g id="Page-1" stroke="none" stroke-width="1" fill="none" fill-rule="evenodd">
        <g id="Desktop" transform="translate(-625.000000, -8.000000)">
            <g id="account_circle-24px" transform="translate(625.000000, 8.000000)">
                <polygon id="Path" points="0 0 250 0 250 250 0 250"></polygon>
                <path d="M125,20.8333333 C67.5,20.8333333 20.8333333,67.5 20.8333333,125 C20.8333333,182.5 67.5,229.166667 125,229.166667 C182.5,229.166667 229.166667,182.5 229.166667,125 C229.166667,67.5 182.5,20.8333333 125,20.8333333 Z M125,52.0833333 C142.291667,52.0833333 156.25,66.0416667 156.25,83.3333333 C156.25,100.625 142.291667,114.583333 125,114.583333 C107.708333,114.583333 93.75,100.625 93.75,83.3333333 C93.75,66.0416667 107.708333,52.0833333 125,52.0833333 Z M125,200 C98.9583333,200 75.9375,186.666667 62.5,166.458333 C62.8125,145.729167 104.166667,134.375 125,134.375 C145.729167,134.375 187.1875,145.729167 187.5,166.458333 C174.0625,186.666667 151.041667,200 125,200 Z" id="Shape" fill="#313132" fill-rule="nonzero"></path>
            </g>
        </g>
    </g>
</svg>